<svg width="44" height="46" viewBox="0 0 44 46" fill="none" xmlns="http://www.w3.org/2000/svg">
<g id="Calendar">
<path id="Vector" d="M35.75 5.75H31.625V4.3125C31.625 3.93125 31.4801 3.56562 31.2223 3.29603C30.9644 3.02645 30.6147 2.875 30.25 2.875C29.8853 2.875 29.5356 3.02645 29.2777 3.29603C29.0199 3.56562 28.875 3.93125 28.875 4.3125V5.75H15.125V4.3125C15.125 3.93125 14.9801 3.56562 14.7223 3.29603C14.4644 3.02645 14.1147 2.875 13.75 2.875C13.3853 2.875 13.0356 3.02645 12.7777 3.29603C12.5199 3.56562 12.375 3.93125 12.375 4.3125V5.75H8.25C7.52065 5.75 6.82118 6.0529 6.30546 6.59207C5.78973 7.13124 5.5 7.8625 5.5 8.625V37.375C5.5 38.1375 5.78973 38.8688 6.30546 39.4079C6.82118 39.9471 7.52065 40.25 8.25 40.25H35.75C36.4793 40.25 37.1788 39.9471 37.6945 39.4079C38.2103 38.8688 38.5 38.1375 38.5 37.375V8.625C38.5 7.8625 38.2103 7.13124 37.6945 6.59207C37.1788 6.0529 36.4793 5.75 35.75 5.75ZM12.375 8.625V10.0625C12.375 10.4437 12.5199 10.8094 12.7777 11.079C13.0356 11.3485 13.3853 11.5 13.75 11.5C14.1147 11.5 14.4644 11.3485 14.7223 11.079C14.9801 10.8094 15.125 10.4437 15.125 10.0625V8.625H28.875V10.0625C28.875 10.4437 29.0199 10.8094 29.2777 11.079C29.5356 11.3485 29.8853 11.5 30.25 11.5C30.6147 11.5 30.9644 11.3485 31.2223 11.079C31.4801 10.8094 31.625 10.4437 31.625 10.0625V8.625H35.75V14.375H8.25V8.625H12.375ZM35.75 37.375H8.25V17.25H35.75V37.375ZM19.25 21.5625V33.0625C19.25 33.4437 19.1051 33.8094 18.8473 34.079C18.5894 34.3486 18.2397 34.5 17.875 34.5C17.5103 34.5 17.1606 34.3486 16.9027 34.079C16.6449 33.8094 16.5 33.4437 16.5 33.0625V23.8877L15.7403 24.2866C15.4139 24.4572 15.0361 24.4852 14.6899 24.3646C14.3437 24.244 14.0576 23.9845 13.8944 23.6433C13.7312 23.3021 13.7043 22.907 13.8197 22.5451C13.9351 22.1832 14.1833 21.884 14.5097 21.7134L17.2597 20.2759C17.4694 20.1662 17.7025 20.1144 17.9367 20.1254C18.171 20.1364 18.3987 20.2099 18.5981 20.3388C18.7976 20.4677 18.9622 20.6479 19.0763 20.862C19.1904 21.0762 19.2502 21.3173 19.25 21.5625ZM29.4181 27.034L26.125 31.625H28.875C29.2397 31.625 29.5894 31.7764 29.8473 32.046C30.1051 32.3156 30.25 32.6813 30.25 33.0625C30.25 33.4437 30.1051 33.8094 29.8473 34.079C29.5894 34.3486 29.2397 34.5 28.875 34.5H23.375C23.1196 34.5 22.8693 34.4257 22.6521 34.2853C22.4349 34.145 22.2594 33.9441 22.1452 33.7054C22.031 33.4666 21.9826 33.1993 22.0056 32.9334C22.0285 32.6675 22.1218 32.4136 22.275 32.2L27.2216 25.3054C27.3341 25.1488 27.4148 24.9698 27.4588 24.7794C27.5027 24.5891 27.509 24.3913 27.4773 24.1983C27.4455 24.0052 27.3763 23.8211 27.274 23.657C27.1717 23.4929 27.0384 23.3524 26.8823 23.2442C26.7262 23.1359 26.5506 23.0621 26.3662 23.0274C26.1818 22.9926 25.9926 22.9976 25.8102 23.042C25.6277 23.0865 25.4559 23.1694 25.3052 23.2858C25.1545 23.4022 25.0282 23.5495 24.9339 23.7188C24.8463 23.8874 24.7272 24.0361 24.5838 24.1559C24.4403 24.2757 24.2754 24.3643 24.0986 24.4164C23.9219 24.4684 23.737 24.483 23.5548 24.4591C23.3726 24.4353 23.1968 24.3736 23.0378 24.2775C22.8788 24.1815 22.7398 24.0532 22.629 23.9001C22.5183 23.747 22.4379 23.5723 22.3928 23.3862C22.3476 23.2002 22.3386 23.0065 22.3662 22.8167C22.3938 22.627 22.4574 22.4449 22.5534 22.2812C23.0076 21.4595 23.7084 20.8174 24.5472 20.4544C25.386 20.0914 26.3159 20.0277 27.1927 20.2734C28.0696 20.5191 28.8445 21.0603 29.3972 21.8131C29.9499 22.566 30.2497 23.4884 30.25 24.4375C30.2529 25.375 29.9606 26.2875 29.4181 27.034Z" fill="#5956FF"/>
</g>
</svg>
